{
    "Track3": {
        "values": [
            {"key": "ENGINE", "value": 3.0},
            {"key": "VAL_3", "value": 650.0},
            {"key": "VAL_4", "value": 20.0},
            {"key": "VAL_5", "value": 14.0},
            {"key": "VAL_6", "value": 22.0},
            {"key": "VAL_7", "value": 2.0},
            {"key": "VAL_8", "value": 16.0},
            {"key": "VAL_9", "value": 170.0},
            {"key": "VAL_10", "value": 4.0},
            {"key": "VAL_11", "value": 22.0},
            {"key": "VAL_12", "value": 9.0},
            {"key": "DURATION", "value": 280.0},
            {"key": "AMP_MORPH", "value": 50.0}
        ]
    },
    "Sequencer": {"STATUS": 1.0, "STEP_COUNT": 32, "STEPS": [
        {"position": 0, "len": 1, "enabled": true, "note": 42, "velocity": 0.7, "condition": "---", "motion": "---"},
        {"position": 2, "len": 1, "enabled": true, "note": 42, "velocity": 0.65, "condition": "---", "motion": "---"},
        {"position": 4, "len": 1, "enabled": true, "note": 42, "velocity": 0.8, "condition": "---", "motion": "---"},
        {"position": 6, "len": 1, "enabled": true, "note": 42, "velocity": 0.65, "condition": "---", "motion": "---"},
        {"position": 8, "len": 1, "enabled": true, "note": 42, "velocity": 0.7, "condition": "---", "motion": "---"},
        {"position": 9, "len": 1, "enabled": true, "note": 42, "velocity": 0.55, "condition": "---", "motion": "---"},
        {"position": 10, "len": 1, "enabled": true, "note": 42, "velocity": 0.5, "condition": "---", "motion": "---"},
        {"position": 11, "len": 1, "enabled": true, "note": 42, "velocity": 0.45, "condition": "---", "motion": "---"},
        {"position": 12, "len": 1, "enabled": true, "note": 42, "velocity": 0.8, "condition": "---", "motion": "---"},
        {"position": 14, "len": 1, "enabled": true, "note": 42, "velocity": 0.65, "condition": "---", "motion": "---"},
        {"position": 16, "len": 1, "enabled": true, "note": 42, "velocity": 0.75, "condition": "---", "motion": "---"},
        {"position": 18, "len": 1, "enabled": true, "note": 42, "velocity": 0.65, "condition": "---", "motion": "---"},
        {"position": 20, "len": 1, "enabled": true, "note": 42, "velocity": 0.8, "condition": "---", "motion": "---"},
        {"position": 22, "len": 1, "enabled": true, "note": 42, "velocity": 0.6, "condition": "---", "motion": "---"},
        {"position": 24, "len": 1, "enabled": true, "note": 42, "velocity": 0.7, "condition": "---", "motion": "---"},
        {"position": 25, "len": 1, "enabled": true, "note": 42, "velocity": 0.5, "condition": "---", "motion": "---"},
        {"position": 26, "len": 1, "enabled": true, "note": 42, "velocity": 0.45, "condition": "---", "motion": "---"},
        {"position": 27, "len": 1, "enabled": true, "note": 42, "velocity": 0.4, "condition": "---", "motion": "---"},
        {"position": 28, "len": 1, "enabled": true, "note": 42, "velocity": 0.8, "condition": "---", "motion": "---"},
        {"position": 30, "len": 1, "enabled": true, "note": 42, "velocity": 0.6, "condition": "---", "motion": "---"}
    ]},
    "SerializeTrack": {"CLIP": 0.0}
}
