{
    "Track3": {
        "values": [
            {"key": "ENGINE", "value": 0.0},
            {"key": "VAL_3", "value": 8500.0},
            {"key": "VAL_4", "value": 0.25},
            {"key": "VAL_5", "value": 85.0},
            {"key": "VAL_6", "value": 12.0},
            {"key": "VAL_7", "value": 0.006},
            {"key": "VAL_8", "value": 8.0},
            {"key": "VAL_9", "value": 2200.0},
            {"key": "VAL_10", "value": 38.0},
            {"key": "VAL_11", "value": 55.0},
            {"key": "VAL_12", "value": 0.12},
            {"key": "DURATION", "value": 65.0},
            {"key": "AMP_MORPH", "value": 50.0}
        ]
    },
    "Sequencer": {"STATUS": 1.0, "STEP_COUNT": 32, "STEPS": [
        {"position": 0, "len": 1, "enabled": true, "note": 42, "velocity": 0.9, "condition": "---", "motion": "---"},
        {"position": 2, "len": 1, "enabled": true, "note": 42, "velocity": 0.6, "condition": "---", "motion": "---"},
        {"position": 4, "len": 1, "enabled": true, "note": 42, "velocity": 0.85, "condition": "---", "motion": "---"},
        {"position": 6, "len": 1, "enabled": true, "note": 42, "velocity": 0.55, "condition": "---", "motion": "---"},
        {"position": 8, "len": 1, "enabled": true, "note": 42, "velocity": 0.9, "condition": "---", "motion": "---"},
        {"position": 10, "len": 1, "enabled": true, "note": 42, "velocity": 0.5, "condition": "---", "motion": "---"},
        {"position": 12, "len": 1, "enabled": true, "note": 42, "velocity": 0.85, "condition": "---", "motion": "---"},
        {"position": 14, "len": 1, "enabled": true, "note": 42, "velocity": 0.6, "condition": "---", "motion": "---"},
        {"position": 16, "len": 1, "enabled": true, "note": 42, "velocity": 0.9, "condition": "---", "motion": "---"},
        {"position": 18, "len": 1, "enabled": true, "note": 42, "velocity": 0.55, "condition": "---", "motion": "---"},
        {"position": 20, "len": 1, "enabled": true, "note": 42, "velocity": 0.85, "condition": "---", "motion": "---"},
        {"position": 22, "len": 1, "enabled": true, "note": 42, "velocity": 0.5, "condition": "---", "motion": "---"},
        {"position": 24, "len": 1, "enabled": true, "note": 42, "velocity": 0.9, "condition": "---", "motion": "---"},
        {"position": 26, "len": 1, "enabled": true, "note": 42, "velocity": 0.6, "condition": "---", "motion": "---"},
        {"position": 28, "len": 1, "enabled": true, "note": 42, "velocity": 0.85, "condition": "---", "motion": "---"},
        {"position": 30, "len": 1, "enabled": true, "note": 42, "velocity": 0.55, "condition": "---", "motion": "---"},
        {"position": 1, "len": 1, "enabled": true, "note": 42, "velocity": 0.35, "condition": "50%", "motion": "---"},
        {"position": 7, "len": 1, "enabled": true, "note": 42, "velocity": 0.35, "condition": "50%", "motion": "---"},
        {"position": 15, "len": 1, "enabled": true, "note": 42, "velocity": 0.4, "condition": "50%", "motion": "---"},
        {"position": 23, "len": 1, "enabled": true, "note": 42, "velocity": 0.35, "condition": "50%", "motion": "---"}
    ]},
    "SerializeTrack": {"CLIP": 0.0}
}
