{
    "Sequencer": {
        "STATUS": 1.0,
        "STEPS": [
            {
                "condition": "---",
                "enabled": true,
                "len": 1,
                "motion": "---",
                "note": 60,
                "position": 0,
                "velocity": 0.809999942779541
            },
            {
                "condition": "---",
                "enabled": true,
                "len": 1,
                "motion": "---",
                "note": 60,
                "position": 4,
                "velocity": 0.800000011920929
            },
            {
                "condition": "---",
                "enabled": true,
                "len": 1,
                "motion": "---",
                "note": 60,
                "position": 8,
                "velocity": 0.800000011920929
            },
            {
                "condition": "---",
                "enabled": true,
                "len": 1,
                "motion": "---",
                "note": 60,
                "position": 12,
                "velocity": 0.800000011920929
            },
            {
                "condition": "---",
                "enabled": true,
                "len": 1,
                "motion": "---",
                "note": 60,
                "position": 16,
                "velocity": 0.800000011920929
            },
            {
                "condition": "---",
                "enabled": true,
                "len": 1,
                "motion": "---",
                "note": 60,
                "position": 20,
                "velocity": 0.800000011920929
            },
            {
                "condition": "---",
                "enabled": true,
                "len": 1,
                "motion": "---",
                "note": 60,
                "position": 24,
                "velocity": 0.800000011920929
            },
            {
                "condition": "---",
                "enabled": true,
                "len": 1,
                "motion": "---",
                "note": 60,
                "position": 28,
                "velocity": 0.800000011920929
            },
            {
                "condition": "Impair",
                "enabled": true,
                "len": 1,
                "motion": "---",
                "note": 60,
                "position": 30,
                "velocity": 0.800000011920929
            },
            {
                "condition": "40%",
                "enabled": true,
                "len": 1,
                "motion": "---",
                "note": 60,
                "position": 31,
                "velocity": 0.800000011920929
            },
            {
                "condition": "20%",
                "enabled": true,
                "len": 1,
                "motion": "---",
                "note": 60,
                "position": 29,
                "velocity": 0.800000011920929
            },
            {
                "condition": "Pair",
                "enabled": true,
                "len": 1,
                "motion": "---",
                "note": 60,
                "position": 32,
                "velocity": 0.800000011920929
            },
            {
                "condition": "---",
                "enabled": true,
                "len": 1,
                "motion": "---",
                "note": 60,
                "position": 36,
                "velocity": 0.800000011920929
            },
            {
                "condition": "---",
                "enabled": true,
                "len": 1,
                "motion": "---",
                "note": 60,
                "position": 40,
                "velocity": 0.800000011920929
            },
            {
                "condition": "---",
                "enabled": true,
                "len": 1,
                "motion": "---",
                "note": 60,
                "position": 44,
                "velocity": 0.800000011920929
            },
            {
                "condition": "---",
                "enabled": true,
                "len": 1,
                "motion": "---",
                "note": 60,
                "position": 48,
                "velocity": 0.800000011920929
            },
            {
                "condition": "---",
                "enabled": true,
                "len": 1,
                "motion": "---",
                "note": 60,
                "position": 56,
                "velocity": 0.800000011920929
            },
            {
                "condition": "Pair",
                "enabled": true,
                "len": 1,
                "motion": "---",
                "note": 60,
                "position": 52,
                "velocity": 0.800000011920929
            },
            {
                "condition": "---",
                "enabled": true,
                "len": 1,
                "motion": "---",
                "note": 60,
                "position": 60,
                "velocity": 0.800000011920929
            },
            {
                "condition": "---",
                "enabled": true,
                "len": 1,
                "motion": "---",
                "note": 60,
                "position": 62,
                "velocity": 0.5900001525878906
            }
        ]
    },
    "SerializeTrack": {
        "CLIP": 3.0
    },
    "Track1": {
        "engine": "Kick",
        "engineType": "Drum",
        "values": [
            {
                "key": "ENGINE",
                "value": 4.0
            },
            {
                "key": "VAL_1",
                "value": 1840.0
            },
            {
                "key": "VAL_2",
                "value": 0.0
            },
            {
                "key": "VAL_3",
                "value": 7.65000057220459
            },
            {
                "key": "VAL_4",
                "value": 434.0
            },
            {
                "key": "VAL_5",
                "value": -14.0
            },
            {
                "key": "VAL_6",
                "value": 70.54998779296875
            },
            {
                "key": "VAL_7",
                "value": -47.0
            },
            {
                "key": "VAL_8",
                "value": 63.0
            },
            {
                "key": "VAL_9",
                "value": 10.0
            },
            {
                "key": "VAL_10",
                "value": 65.0
            },
            {
                "key": "VAL_11",
                "value": 7.0
            },
            {
                "key": "VAL_12",
                "value": 5.0
            }
        ]
    }
}