{
    "ClipSequencer": null,
    "Sequencer": {
        "STATUS": 1.0,
        "STEPS": [
            {
                "condition": "---",
                "enabled": true,
                "len": 1,
                "motion": "---",
                "note": 60,
                "position": 1,
                "velocity": 0.800000011920929
            },
            {
                "condition": "---",
                "enabled": true,
                "len": 1,
                "motion": "---",
                "note": 60,
                "position": 5,
                "velocity": 0.800000011920929
            },
            {
                "condition": "---",
                "enabled": true,
                "len": 1,
                "motion": "---",
                "note": 81,
                "position": 6,
                "velocity": 0.800000011920929
            },
            {
                "condition": "---",
                "enabled": true,
                "len": 1,
                "motion": "---",
                "note": 60,
                "position": 0,
                "velocity": 0.800000011920929
            },
            {
                "condition": "---",
                "enabled": true,
                "len": 1,
                "motion": "---",
                "note": 60,
                "position": 3,
                "velocity": 0.800000011920929
            },
            {
                "condition": "---",
                "enabled": true,
                "len": 1,
                "motion": "---",
                "note": 60,
                "position": 8,
                "velocity": 0.800000011920929
            },
            {
                "condition": "---",
                "enabled": true,
                "len": 1,
                "motion": "---",
                "note": 76,
                "position": 14,
                "velocity": 0.800000011920929
            },
            {
                "condition": "---",
                "enabled": true,
                "len": 1,
                "motion": "---",
                "note": 79,
                "position": 10,
                "velocity": 0.800000011920929
            },
            {
                "condition": "---",
                "enabled": true,
                "len": 1,
                "motion": "---",
                "note": 60,
                "position": 19,
                "velocity": 0.800000011920929
            },
            {
                "condition": "---",
                "enabled": true,
                "len": 1,
                "motion": "---",
                "note": 60,
                "position": 18,
                "velocity": 0.800000011920929
            },
            {
                "condition": "---",
                "enabled": true,
                "len": 1,
                "motion": "---",
                "note": 60,
                "position": 20,
                "velocity": 0.800000011920929
            },
            {
                "condition": "---",
                "enabled": true,
                "len": 1,
                "motion": "---",
                "note": 29,
                "position": 23,
                "velocity": 0.800000011920929
            },
            {
                "condition": "---",
                "enabled": true,
                "len": 1,
                "motion": "---",
                "note": 60,
                "position": 24,
                "velocity": 0.800000011920929
            },
            {
                "condition": "---",
                "enabled": true,
                "len": 1,
                "motion": "---",
                "note": 60,
                "position": 25,
                "velocity": 0.800000011920929
            },
            {
                "condition": "---",
                "enabled": true,
                "len": 1,
                "motion": "---",
                "note": 40,
                "position": 31,
                "velocity": 0.800000011920929
            },
            {
                "condition": "---",
                "enabled": true,
                "len": 1,
                "motion": "---",
                "note": 60,
                "position": 52,
                "velocity": 0.800000011920929
            },
            {
                "condition": "---",
                "enabled": true,
                "len": 1,
                "motion": "---",
                "note": 60,
                "position": 50,
                "velocity": 0.800000011920929
            },
            {
                "condition": "---",
                "enabled": true,
                "len": 1,
                "motion": "---",
                "note": 55,
                "position": 55,
                "velocity": 0.800000011920929
            },
            {
                "condition": "---",
                "enabled": true,
                "len": 1,
                "motion": "---",
                "note": 54,
                "position": 62,
                "velocity": 0.800000011920929
            },
            {
                "condition": "---",
                "enabled": true,
                "len": 1,
                "motion": "---",
                "note": 61,
                "position": 63,
                "velocity": 0.800000011920929
            }
        ],
        "STEP_COUNT": 64.0
    },
    "SerializeTrack": {
        "CLIP": 0.0
    },
    "Track2": {
        "engine": "FM",
        "engineType": "Drum",
        "values": [
            {
                "key": "ENGINE",
                "value": 6.0
            },
            {
                "key": "VAL_1",
                "value": 500.0
            },
            {
                "key": "VAL_2",
                "value": 0.0
            },
            {
                "key": "VAL_3",
                "value": 0.0
            },
            {
                "key": "VAL_4",
                "value": 100.0
            },
            {
                "key": "VAL_5",
                "value": 100.0
            },
            {
                "key": "VAL_6",
                "value": 0.0
            },
            {
                "key": "VAL_7",
                "value": 50.0
            },
            {
                "key": "VAL_8",
                "value": 50.0
            },
            {
                "key": "VAL_9",
                "value": 0.0
            },
            {
                "key": "VAL_10",
                "value": 0.0
            },
            {
                "key": "VAL_11",
                "value": 0.0
            },
            {
                "key": "VAL_12",
                "value": 0.0
            }
        ]
    }
}